<?xml version="1.0" encoding="UTF-8" standalone="no"?><!DOCTYPE svg PUBLIC "-//W3C//DTD SVG 1.1//EN" "http://www.w3.org/Graphics/SVG/1.1/DTD/svg11.dtd"><svg width="100%" height="100%" viewBox="0 0 563 50" version="1.1" xmlns="http://www.w3.org/2000/svg" xmlns:xlink="http://www.w3.org/1999/xlink" xml:space="preserve" xmlns:serif="http://www.serif.com/" style="fill-rule:evenodd;clip-rule:evenodd;stroke-linejoin:round;stroke-miterlimit:2;"><g><g><g><path d="M155.836,31.582l11.563,0l-4.251,-9.466c-0.246,-0.604 -0.501,-1.299 -0.765,-2.083c-0.265,-0.784 -0.529,-1.658 -0.794,-2.621c-0.226,0.907 -0.467,1.752 -0.722,2.536c-0.255,0.784 -0.515,1.507 -0.78,2.168l-4.251,9.466Zm18.649,16.297l-4.705,-10.685l-16.438,0l-4.818,10.685l-7.086,-0l20.095,-43.136l20.065,43.136l-7.113,-0Z" style="fill-rule:nonzero;"/><path d="M184.999,47.879l0,-26.868l5.782,0l0,4.393c1.228,-1.852 2.674,-3.203 4.336,-4.053c1.663,-0.85 3.685,-1.275 6.066,-1.275c2.002,-0 3.708,0.316 5.115,0.949c1.408,0.633 2.508,1.573 3.302,2.82c0.472,0.737 0.812,1.597 1.02,2.579c0.208,0.983 0.312,2.702 0.312,5.158l0,16.297l-6.207,-0l0,-13.803c0,-3.533 -0.43,-5.88 -1.289,-7.042c-0.86,-1.162 -2.386,-1.743 -4.577,-1.743c-1.436,-0 -2.717,0.264 -3.841,0.793c-1.124,0.529 -2.007,1.276 -2.65,2.239c-0.453,0.643 -0.77,1.469 -0.949,2.48c-0.18,1.011 -0.269,2.622 -0.269,4.832l-0,12.244l-6.151,-0Z" style="fill-rule:nonzero;"/><path d="M238.423,34.36c0,-2.778 -0.647,-4.941 -1.941,-6.49c-1.294,-1.55 -3.103,-2.324 -5.427,-2.324c-2.324,-0 -4.152,0.798 -5.485,2.395c-1.332,1.596 -1.998,3.811 -1.998,6.646c0,2.853 0.643,5.054 1.928,6.603c1.284,1.55 3.098,2.324 5.441,2.324c2.23,0 4.034,-0.836 5.413,-2.508c1.38,-1.672 2.069,-3.888 2.069,-6.646Zm-0.17,-30.411l6.15,0l0,43.93l-6.15,-0l0,-3.486c-1.096,1.549 -2.376,2.702 -3.84,3.457c-1.464,0.756 -3.141,1.134 -5.031,1.134c-3.797,0 -6.787,-1.299 -8.97,-3.897c-2.182,-2.598 -3.273,-6.155 -3.273,-10.67c-0,-4.289 1.115,-7.752 3.344,-10.388c2.23,-2.635 5.139,-3.953 8.729,-3.953c2.192,-0 4.067,0.458 5.626,1.374c1.559,0.917 2.697,2.235 3.415,3.954l0,-21.455Z" style="fill-rule:nonzero;"/><path d="M259.056,25.291c0.661,-1.776 1.535,-3.09 2.622,-3.94c1.086,-0.85 2.432,-1.275 4.038,-1.275c0.869,-0 1.724,0.104 2.565,0.311c0.841,0.208 1.668,0.511 2.48,0.907l-2.211,5.215c-0.529,-0.378 -1.1,-0.656 -1.714,-0.836c-0.614,-0.179 -1.299,-0.269 -2.055,-0.269c-2.041,-0 -3.505,0.817 -4.393,2.452c-0.888,1.634 -1.332,4.378 -1.332,8.233l0,11.79l-6.15,-0l-0,-26.925l6.15,0l0,4.337Z" style="fill-rule:nonzero;"/><path d="M300.151,35.352l-21.483,-0c0.152,2.513 0.898,4.473 2.239,5.881c1.342,1.407 3.127,2.111 5.357,2.111c1.984,0 3.637,-0.416 4.96,-1.247c1.322,-0.831 2.475,-2.173 3.457,-4.024l5.187,2.89c-1.512,2.702 -3.382,4.715 -5.612,6.037c-2.229,1.323 -4.846,1.984 -7.85,1.984c-4.308,0 -7.738,-1.313 -10.288,-3.939c-2.551,-2.627 -3.826,-6.132 -3.826,-10.515c-0,-4.214 1.317,-7.676 3.953,-10.387c2.636,-2.712 6.023,-4.067 10.161,-4.067c4.326,-0 7.699,1.237 10.118,3.712c2.418,2.476 3.627,5.943 3.627,10.402l0,1.162Zm-6.377,-4.138c-0.245,-1.927 -0.982,-3.396 -2.21,-4.407c-1.228,-1.011 -2.91,-1.516 -5.045,-1.516c-2.022,-0 -3.647,0.491 -4.875,1.473c-1.228,0.983 -2.088,2.466 -2.579,4.45l14.709,-0Zm-11.365,-14.284l5.385,-7.709l6.377,-0l-8.276,7.709l-3.486,-0Z" style="fill-rule:nonzero;"/><path d="M303.467,43.004l5.102,-2.777c0.378,1.341 1.077,2.361 2.097,3.06c1.02,0.7 2.333,1.049 3.94,1.049c1.379,0 2.461,-0.316 3.245,-0.949c0.784,-0.633 1.176,-1.498 1.176,-2.594c-0,-1.454 -1.398,-2.701 -4.195,-3.741c-0.944,-0.34 -1.672,-0.623 -2.182,-0.85c-2.872,-1.19 -4.88,-2.399 -6.023,-3.628c-1.143,-1.228 -1.714,-2.72 -1.714,-4.478c-0,-2.399 0.94,-4.345 2.82,-5.838c1.88,-1.493 4.369,-2.239 7.468,-2.239c2.078,0 3.859,0.383 5.342,1.148c1.483,0.765 2.565,1.856 3.245,3.273l-4.364,3.005c-0.322,-0.851 -0.884,-1.526 -1.687,-2.027c-0.803,-0.501 -1.733,-0.751 -2.791,-0.751c-1.172,0 -2.112,0.279 -2.82,0.836c-0.709,0.558 -1.063,1.299 -1.063,2.225c-0,1.398 1.587,2.674 4.761,3.826c1.002,0.359 1.776,0.652 2.324,0.879c2.475,0.982 4.247,2.092 5.314,3.33c1.068,1.237 1.602,2.782 1.602,4.634c-0,2.683 -0.974,4.785 -2.92,6.306c-1.946,1.521 -4.629,2.281 -8.049,2.281c-2.626,0 -4.808,-0.491 -6.547,-1.474c-1.738,-0.982 -3.098,-2.484 -4.081,-4.506Z" style="fill-rule:nonzero;"/><path d="M349.296,47.879l-0,-43.136l26.357,25.366c0.718,0.718 1.446,1.483 2.183,2.295c0.736,0.813 1.511,1.729 2.324,2.749l-0,-28.766l6.235,-0l-0,43.107l-26.896,-25.819c-0.718,-0.699 -1.413,-1.436 -2.084,-2.211c-0.67,-0.774 -1.308,-1.587 -1.913,-2.437l0,28.852l-6.206,-0Z" style="fill-rule:nonzero;"/><path d="M420.688,47.879l-6.15,-0l-0,-3.486c-1.096,1.549 -2.376,2.702 -3.84,3.457c-1.465,0.756 -3.142,1.134 -5.031,1.134c-3.798,0 -6.788,-1.299 -8.97,-3.897c-2.182,-2.598 -3.274,-6.155 -3.274,-10.67c0,-4.289 1.115,-7.752 3.345,-10.388c2.229,-2.635 5.139,-3.953 8.729,-3.953c2.192,-0 4.067,0.458 5.626,1.374c1.559,0.917 2.697,2.235 3.415,3.954l-0,-4.393l6.15,0l0,26.868Zm-5.98,-13.519c-0,-2.778 -0.647,-4.941 -1.941,-6.49c-1.295,-1.55 -3.104,-2.324 -5.428,-2.324c-2.324,-0 -4.152,0.798 -5.484,2.395c-1.332,1.596 -1.998,3.811 -1.998,6.646c-0,2.853 0.642,5.054 1.927,6.603c1.285,1.55 3.099,2.324 5.442,2.324c2.21,0 4.01,-0.841 5.399,-2.522c1.389,-1.682 2.083,-3.892 2.083,-6.632Z" style="fill-rule:nonzero;"/><path d="M438.628,49.494l-14.086,-28.483l6.717,0l5.867,13.519c0.189,0.416 0.416,1.039 0.68,1.87c0.265,0.832 0.539,1.824 0.822,2.976c0.189,-0.812 0.411,-1.62 0.666,-2.423c0.255,-0.803 0.562,-1.611 0.921,-2.423l5.839,-13.519l6.688,0l-14.114,28.483Z" style="fill-rule:nonzero;"/><path d="M481.878,47.879l-6.151,-0l0,-3.486c-1.095,1.549 -2.376,2.702 -3.84,3.457c-1.464,0.756 -3.141,1.134 -5.031,1.134c-3.797,0 -6.787,-1.299 -8.97,-3.897c-2.182,-2.598 -3.273,-6.155 -3.273,-10.67c-0,-4.289 1.115,-7.752 3.344,-10.388c2.23,-2.635 5.139,-3.953 8.729,-3.953c2.192,-0 4.067,0.458 5.626,1.374c1.559,0.917 2.697,2.235 3.415,3.954l0,-4.393l6.151,0l-0,26.868Zm-5.981,-13.519c0,-2.778 -0.647,-4.941 -1.941,-6.49c-1.294,-1.55 -3.103,-2.324 -5.427,-2.324c-2.324,-0 -4.152,0.798 -5.484,2.395c-1.333,1.596 -1.999,3.811 -1.999,6.646c0,2.853 0.643,5.054 1.928,6.603c1.284,1.55 3.098,2.324 5.441,2.324c2.211,0 4.011,-0.841 5.399,-2.522c1.389,-1.682 2.083,-3.892 2.083,-6.632Z" style="fill-rule:nonzero;"/><path d="M496.53,25.291c0.661,-1.776 1.535,-3.09 2.622,-3.94c1.086,-0.85 2.432,-1.275 4.038,-1.275c0.87,-0 1.724,0.104 2.565,0.311c0.841,0.208 1.668,0.511 2.48,0.907l-2.21,5.215c-0.53,-0.378 -1.101,-0.656 -1.715,-0.836c-0.614,-0.179 -1.299,-0.269 -2.055,-0.269c-2.04,-0 -3.505,0.817 -4.393,2.452c-0.888,1.634 -1.332,4.378 -1.332,8.233l0,11.79l-6.15,-0l-0,-26.925l6.15,0l0,4.337Z" style="fill-rule:nonzero;"/><path d="M517.9,25.291c0.661,-1.776 1.535,-3.09 2.621,-3.94c1.087,-0.85 2.433,-1.275 4.039,-1.275c0.869,-0 1.724,0.104 2.565,0.311c0.841,0.208 1.667,0.511 2.48,0.907l-2.211,5.215c-0.529,-0.378 -1.101,-0.656 -1.715,-0.836c-0.614,-0.179 -1.299,-0.269 -2.054,-0.269c-2.041,-0 -3.505,0.817 -4.393,2.452c-0.888,1.634 -1.332,4.378 -1.332,8.233l-0,11.79l-6.15,-0l-0,-26.925l6.15,0l-0,4.337Z" style="fill-rule:nonzero;"/><path d="M554.234,34.53c-0,-2.494 -0.803,-4.606 -2.409,-6.334c-1.607,-1.729 -3.572,-2.594 -5.896,-2.594c-2.305,0 -4.265,0.865 -5.88,2.594c-1.616,1.728 -2.424,3.84 -2.424,6.334c0,2.494 0.808,4.605 2.424,6.334c1.615,1.729 3.575,2.594 5.88,2.594c2.306,-0 4.266,-0.865 5.881,-2.594c1.616,-1.729 2.424,-3.84 2.424,-6.334Zm-23.099,-0.057c0,-1.965 0.373,-3.821 1.12,-5.569c0.746,-1.748 1.818,-3.302 3.216,-4.662c1.38,-1.342 2.967,-2.371 4.762,-3.089c1.795,-0.718 3.675,-1.077 5.64,-1.077c2.021,-0 3.925,0.359 5.711,1.077c1.785,0.718 3.386,1.776 4.804,3.174c1.417,1.379 2.494,2.938 3.23,4.676c0.737,1.739 1.106,3.562 1.106,5.47c-0,1.984 -0.364,3.845 -1.091,5.584c-0.728,1.738 -1.791,3.278 -3.189,4.619c-1.474,1.417 -3.108,2.49 -4.903,3.217c-1.795,0.727 -3.684,1.091 -5.668,1.091c-1.946,0 -3.817,-0.364 -5.612,-1.091c-1.795,-0.727 -3.391,-1.781 -4.79,-3.16c-1.417,-1.398 -2.494,-2.967 -3.231,-4.705c-0.736,-1.738 -1.105,-3.59 -1.105,-5.555Z" style="fill-rule:nonzero;"/></g></g><g><path d="M45.958,47.641l-10.313,-0l0,-5.845c-1.837,2.598 -3.984,4.53 -6.439,5.797c-2.455,1.268 -5.267,1.901 -8.435,1.901c-6.368,0 -11.382,-2.178 -15.041,-6.534c-3.659,-4.356 -5.489,-10.32 -5.489,-17.892c-0,-7.192 1.869,-12.998 5.608,-17.417c3.738,-4.42 8.617,-6.63 14.637,-6.63c3.675,0 6.819,0.769 9.433,2.305c2.614,1.537 4.522,3.747 5.726,6.63l0,-7.366l10.313,-0l-0,45.051Zm-10.028,-22.668c0,-4.658 -1.085,-8.285 -3.255,-10.883c-2.17,-2.598 -5.204,-3.897 -9.1,-3.897c-3.897,0 -6.963,1.339 -9.196,4.016c-2.234,2.677 -3.35,6.392 -3.35,11.144c-0,4.784 1.077,8.475 3.231,11.073c2.154,2.598 5.196,3.896 9.124,3.896c3.707,0 6.725,-1.409 9.053,-4.229c2.329,-2.82 3.493,-6.526 3.493,-11.12Z" style="fill-rule:nonzero;"/><path d="M60.214,47.641l0,-45.051l9.695,-0l-0,7.366c2.059,-3.105 4.483,-5.37 7.271,-6.796c2.788,-1.426 6.178,-2.139 10.17,-2.139c3.358,0 6.217,0.531 8.578,1.592c2.36,1.062 4.205,2.638 5.536,4.729c0.792,1.235 1.362,2.677 1.711,4.324c0.348,1.648 0.522,4.531 0.522,8.649l0,27.326l-10.407,-0l0,-23.144c0,-5.924 -0.721,-9.86 -2.162,-11.809c-1.442,-1.948 -4,-2.923 -7.675,-2.923c-2.408,0 -4.554,0.444 -6.439,1.331c-1.885,0.887 -3.367,2.139 -4.444,3.754c-0.76,1.078 -1.291,2.464 -1.592,4.159c-0.301,1.695 -0.451,4.395 -0.451,8.102l-0,20.53l-10.313,-0Z" style="fill-rule:nonzero;"/></g></g></svg>