<?xml version="1.0" standalone="no"?><svg xmlns="http://www.w3.org/2000/svg" viewBox="0 0 1440 320"><path fill="#273036" fill-opacity="0.09" d="M0,32L30,48C60,64,120,96,180,96C240,96,300,64,360,80C420,96,480,160,540,176C600,192,660,160,720,165.3C780,171,840,213,900,240C960,267,1020,277,1080,234.7C1140,192,1200,96,1260,85.3C1320,75,1380,149,1410,186.7L1440,224L1440,320L1410,320C1380,320,1320,320,1260,320C1200,320,1140,320,1080,320C1020,320,960,320,900,320C840,320,780,320,720,320C660,320,600,320,540,320C480,320,420,320,360,320C300,320,240,320,180,320C120,320,60,320,30,320L0,320Z"></path></svg>