<?xml version="1.0" encoding="UTF-8" standalone="no"?><!DOCTYPE svg PUBLIC "-//W3C//DTD SVG 1.1//EN" "http://www.w3.org/Graphics/SVG/1.1/DTD/svg11.dtd"><svg width="100%" height="100%" viewBox="0 0 15 17" version="1.1" xmlns="http://www.w3.org/2000/svg" xmlns:xlink="http://www.w3.org/1999/xlink" xml:space="preserve" xmlns:serif="http://www.serif.com/" style="fill-rule:evenodd;clip-rule:evenodd;stroke-linejoin:round;stroke-miterlimit:2;"><g><path d="M13.495,15.614l-3.044,-0l0,-1.726c-0.542,0.767 -1.176,1.338 -1.901,1.712c-0.724,0.374 -1.554,0.561 -2.49,0.561c-1.88,-0 -3.36,-0.643 -4.44,-1.929c-1.08,-1.286 -1.62,-3.046 -1.62,-5.282c0,-2.123 0.552,-3.836 1.655,-5.141c1.104,-1.305 2.544,-1.957 4.321,-1.957c1.085,-0 2.013,0.227 2.785,0.68c0.771,0.454 1.335,1.106 1.69,1.957l0,-2.174l3.044,-0l0,13.299Zm-2.96,-6.692c0,-1.374 -0.32,-2.445 -0.961,-3.212c-0.64,-0.767 -1.536,-1.151 -2.686,-1.151c-1.15,0 -2.055,0.396 -2.715,1.186c-0.659,0.79 -0.989,1.887 -0.989,3.29c0,1.412 0.318,2.501 0.954,3.268c0.636,0.767 1.534,1.15 2.694,1.15c1.094,0 1.985,-0.416 2.672,-1.248c0.688,-0.832 1.031,-1.927 1.031,-3.283Z" style="fill-rule:nonzero;"/></g></svg>