<?xml version="1.0" encoding="UTF-8" standalone="no"?><!DOCTYPE svg PUBLIC "-//W3C//DTD SVG 1.1//EN" "http://www.w3.org/Graphics/SVG/1.1/DTD/svg11.dtd"><svg width="100%" height="100%" viewBox="0 0 565 50" version="1.1" xmlns="http://www.w3.org/2000/svg" xmlns:xlink="http://www.w3.org/1999/xlink" xml:space="preserve" xmlns:serif="http://www.serif.com/" style="fill-rule:evenodd;clip-rule:evenodd;stroke-linejoin:round;stroke-miterlimit:2;"><g><g><path d="M47.05,47.733l-10.49,-0l0,-5.946c-1.869,2.643 -4.052,4.609 -6.55,5.898c-2.497,1.289 -5.357,1.933 -8.58,1.933c-6.477,0 -11.577,-2.215 -15.299,-6.646c-3.722,-4.431 -5.583,-10.498 -5.583,-18.2c0,-7.315 1.901,-13.22 5.704,-17.716c3.803,-4.495 8.765,-6.743 14.888,-6.743c3.738,-0 6.937,0.781 9.595,2.344c2.659,1.563 4.601,3.811 5.825,6.744l0,-7.493l10.49,0l-0,45.825Zm-10.2,-23.057c0,-4.738 -1.103,-8.427 -3.311,-11.07c-2.207,-2.642 -5.293,-3.964 -9.257,-3.964c-3.964,0 -7.081,1.362 -9.353,4.085c-2.272,2.723 -3.408,6.501 -3.408,11.335c-0,4.866 1.096,8.621 3.287,11.263c2.191,2.643 5.285,3.964 9.281,3.964c3.77,-0 6.84,-1.434 9.208,-4.302c2.369,-2.868 3.553,-6.639 3.553,-11.311Z" style="fill:#dedede;fill-rule:nonzero;"/><path d="M61.551,47.733l0,-45.825l9.861,0l0,7.493c2.095,-3.159 4.56,-5.463 7.396,-6.913c2.836,-1.45 6.284,-2.175 10.344,-2.175c3.416,-0 6.325,0.54 8.726,1.619c2.4,1.08 4.277,2.683 5.631,4.81c0.806,1.257 1.386,2.723 1.74,4.399c0.355,1.676 0.532,4.608 0.532,8.797l-0,27.795l-10.586,-0l-0,-23.541c-0,-6.026 -0.733,-10.03 -2.2,-12.012c-1.466,-1.982 -4.068,-2.973 -7.806,-2.973c-2.449,0 -4.633,0.451 -6.55,1.354c-1.918,0.902 -3.424,2.175 -4.52,3.818c-0.773,1.096 -1.313,2.506 -1.619,4.23c-0.306,1.724 -0.459,4.471 -0.459,8.242l-0,20.882l-10.49,-0Z" style="fill:#dedede;fill-rule:nonzero;"/></g><g><path d="M157.919,27.946l11.564,0l-4.252,-9.466c-0.245,-0.605 -0.5,-1.299 -0.765,-2.083c-0.264,-0.784 -0.529,-1.658 -0.793,-2.622c-0.227,0.907 -0.468,1.753 -0.723,2.537c-0.255,0.784 -0.515,1.507 -0.779,2.168l-4.252,9.466Zm18.649,16.296l-4.705,-10.684l-16.438,-0l-4.818,10.684l-7.085,0l20.094,-43.135l20.066,43.135l-7.114,0Z" style="fill:#dedede;fill-rule:nonzero;"/><path d="M187.083,44.242l-0,-26.867l5.781,-0l0,4.393c1.229,-1.852 2.674,-3.203 4.337,-4.053c1.662,-0.851 3.684,-1.276 6.065,-1.276c2.003,0 3.708,0.317 5.116,0.95c1.407,0.633 2.508,1.573 3.301,2.82c0.473,0.737 0.813,1.596 1.021,2.579c0.207,0.982 0.311,2.702 0.311,5.158l0,16.296l-6.206,0l-0,-13.802c-0,-3.533 -0.43,-5.881 -1.29,-7.043c-0.86,-1.162 -2.385,-1.743 -4.577,-1.743c-1.436,0 -2.716,0.265 -3.84,0.794c-1.125,0.529 -2.008,1.275 -2.65,2.239c-0.454,0.642 -0.77,1.469 -0.95,2.48c-0.179,1.01 -0.269,2.621 -0.269,4.832l-0,12.243l-6.15,0Z" style="fill:#dedede;fill-rule:nonzero;"/><path d="M240.507,30.723c-0,-2.777 -0.647,-4.94 -1.942,-6.49c-1.294,-1.549 -3.103,-2.324 -5.427,-2.324c-2.324,0 -4.152,0.799 -5.484,2.395c-1.332,1.597 -1.998,3.812 -1.998,6.646c-0,2.853 0.642,5.054 1.927,6.604c1.285,1.549 3.099,2.324 5.442,2.324c2.229,-0 4.033,-0.836 5.413,-2.508c1.379,-1.673 2.069,-3.888 2.069,-6.647Zm-0.17,-30.41l6.15,-0l-0,43.929l-6.15,0l-0,-3.486c-1.096,1.55 -2.376,2.702 -3.841,3.458c-1.464,0.756 -3.141,1.134 -5.03,1.134c-3.798,-0 -6.788,-1.299 -8.97,-3.897c-2.183,-2.598 -3.274,-6.155 -3.274,-10.671c0,-4.289 1.115,-7.751 3.344,-10.387c2.23,-2.636 5.14,-3.954 8.73,-3.954c2.191,0 4.067,0.459 5.625,1.375c1.559,0.916 2.698,2.234 3.416,3.954l-0,-21.455Z" style="fill:#dedede;fill-rule:nonzero;"/><path d="M261.139,21.654c0.662,-1.776 1.536,-3.089 2.622,-3.939c1.086,-0.851 2.433,-1.276 4.039,-1.276c0.869,0 1.724,0.104 2.565,0.312c0.84,0.208 1.667,0.51 2.479,0.907l-2.21,5.215c-0.529,-0.378 -1.101,-0.657 -1.715,-0.836c-0.614,-0.18 -1.299,-0.269 -2.055,-0.269c-2.04,-0 -3.505,0.817 -4.393,2.451c-0.888,1.634 -1.332,4.379 -1.332,8.233l0,11.79l-6.15,0l0,-26.924l6.15,-0l0,4.336Z" style="fill:#dedede;fill-rule:nonzero;"/><path d="M302.235,31.715l-21.483,0c0.151,2.513 0.897,4.474 2.239,5.881c1.341,1.408 3.127,2.112 5.356,2.112c1.984,-0 3.637,-0.416 4.96,-1.247c1.323,-0.832 2.475,-2.173 3.458,-4.025l5.186,2.891c-1.511,2.702 -3.382,4.714 -5.611,6.037c-2.23,1.322 -4.847,1.984 -7.851,1.984c-4.308,-0 -7.737,-1.313 -10.288,-3.94c-2.551,-2.626 -3.826,-6.131 -3.826,-10.514c-0,-4.214 1.318,-7.676 3.954,-10.388c2.635,-2.711 6.022,-4.067 10.16,-4.067c4.327,0 7.699,1.238 10.118,3.713c2.418,2.475 3.628,5.942 3.628,10.401l-0,1.162Zm-6.377,-4.137c-0.246,-1.928 -0.983,-3.397 -2.211,-4.408c-1.228,-1.01 -2.91,-1.516 -5.045,-1.516c-2.021,0 -3.646,0.491 -4.874,1.474c-1.229,0.982 -2.088,2.466 -2.579,4.45l14.709,-0Zm-11.365,-14.285l5.385,-7.708l6.377,-0l-8.276,7.708l-3.486,0Z" style="fill:#dedede;fill-rule:nonzero;"/><path d="M305.551,39.368l5.101,-2.778c0.378,1.342 1.077,2.362 2.097,3.061c1.021,0.699 2.334,1.049 3.94,1.049c1.379,-0 2.461,-0.317 3.245,-0.95c0.784,-0.633 1.176,-1.497 1.176,-2.593c0,-1.455 -1.398,-2.702 -4.194,-3.741c-0.945,-0.34 -1.673,-0.624 -2.183,-0.85c-2.872,-1.191 -4.879,-2.4 -6.022,-3.628c-1.143,-1.228 -1.715,-2.721 -1.715,-4.478c0,-2.4 0.94,-4.346 2.82,-5.838c1.88,-1.493 4.369,-2.239 7.468,-2.239c2.078,-0 3.859,0.382 5.342,1.147c1.484,0.766 2.565,1.857 3.246,3.274l-4.365,3.004c-0.321,-0.85 -0.883,-1.526 -1.686,-2.026c-0.803,-0.501 -1.734,-0.751 -2.792,-0.751c-1.172,-0 -2.112,0.278 -2.82,0.836c-0.709,0.557 -1.063,1.299 -1.063,2.225c0,1.398 1.587,2.673 4.762,3.826c1.001,0.359 1.776,0.652 2.324,0.878c2.475,0.983 4.246,2.093 5.314,3.33c1.067,1.238 1.601,2.783 1.601,4.634c-0,2.683 -0.973,4.785 -2.919,6.306c-1.946,1.521 -4.629,2.282 -8.049,2.282c-2.627,-0 -4.809,-0.492 -6.547,-1.474c-1.738,-0.983 -3.099,-2.485 -4.081,-4.506Z" style="fill:#dedede;fill-rule:nonzero;"/><path d="M351.379,44.242l-0,-43.135l26.358,25.365c0.718,0.718 1.445,1.483 2.182,2.296c0.737,0.812 1.511,1.729 2.324,2.749l-0,-28.767l6.235,0l0,43.108l-26.896,-25.819c-0.718,-0.699 -1.412,-1.436 -2.083,-2.211c-0.671,-0.775 -1.309,-1.587 -1.913,-2.437l-0,28.851l-6.207,0Z" style="fill:#dedede;fill-rule:nonzero;"/><path d="M422.771,44.242l-6.15,0l0,-3.486c-1.096,1.55 -2.376,2.702 -3.84,3.458c-1.464,0.756 -3.141,1.134 -5.031,1.134c-3.797,-0 -6.787,-1.299 -8.97,-3.897c-2.182,-2.598 -3.273,-6.155 -3.273,-10.671c-0,-4.289 1.115,-7.751 3.344,-10.387c2.23,-2.636 5.139,-3.954 8.729,-3.954c2.192,0 4.067,0.459 5.626,1.375c1.559,0.916 2.697,2.234 3.415,3.954l0,-4.393l6.15,-0l0,26.867Zm-5.98,-13.519c0,-2.777 -0.647,-4.94 -1.941,-6.49c-1.294,-1.549 -3.104,-2.324 -5.428,-2.324c-2.324,0 -4.152,0.799 -5.484,2.395c-1.332,1.597 -1.998,3.812 -1.998,6.646c0,2.853 0.643,5.054 1.928,6.604c1.284,1.549 3.098,2.324 5.441,2.324c2.211,-0 4.01,-0.841 5.399,-2.523c1.389,-1.681 2.083,-3.892 2.083,-6.632Z" style="fill:#dedede;fill-rule:nonzero;"/><path d="M440.712,45.858l-14.086,-28.483l6.717,-0l5.866,13.519c0.189,0.415 0.416,1.039 0.681,1.87c0.264,0.831 0.538,1.823 0.822,2.976c0.189,-0.813 0.411,-1.62 0.666,-2.423c0.255,-0.803 0.562,-1.611 0.921,-2.423l5.838,-13.519l6.689,-0l-14.114,28.483Z" style="fill:#dedede;fill-rule:nonzero;"/><path d="M483.961,44.242l-6.15,0l-0,-3.486c-1.096,1.55 -2.376,2.702 -3.841,3.458c-1.464,0.756 -3.141,1.134 -5.03,1.134c-3.798,-0 -6.788,-1.299 -8.97,-3.897c-2.183,-2.598 -3.274,-6.155 -3.274,-10.671c0,-4.289 1.115,-7.751 3.345,-10.387c2.229,-2.636 5.139,-3.954 8.729,-3.954c2.192,0 4.067,0.459 5.626,1.375c1.558,0.916 2.697,2.234 3.415,3.954l-0,-4.393l6.15,-0l-0,26.867Zm-5.98,-13.519c-0,-2.777 -0.647,-4.94 -1.942,-6.49c-1.294,-1.549 -3.103,-2.324 -5.427,-2.324c-2.324,0 -4.152,0.799 -5.484,2.395c-1.332,1.597 -1.998,3.812 -1.998,6.646c-0,2.853 0.642,5.054 1.927,6.604c1.285,1.549 3.099,2.324 5.442,2.324c2.21,-0 4.01,-0.841 5.399,-2.523c1.388,-1.681 2.083,-3.892 2.083,-6.632Z" style="fill:#dedede;fill-rule:nonzero;"/><path d="M498.613,21.654c0.662,-1.776 1.536,-3.089 2.622,-3.939c1.086,-0.851 2.433,-1.276 4.039,-1.276c0.869,0 1.724,0.104 2.565,0.312c0.84,0.208 1.667,0.51 2.48,0.907l-2.211,5.215c-0.529,-0.378 -1.101,-0.657 -1.715,-0.836c-0.614,-0.18 -1.299,-0.269 -2.055,-0.269c-2.04,-0 -3.504,0.817 -4.393,2.451c-0.888,1.634 -1.332,4.379 -1.332,8.233l0,11.79l-6.15,0l0,-26.924l6.15,-0l0,4.336Z" style="fill:#dedede;fill-rule:nonzero;"/><path d="M519.983,21.654c0.661,-1.776 1.535,-3.089 2.622,-3.939c1.086,-0.851 2.432,-1.276 4.038,-1.276c0.869,0 1.724,0.104 2.565,0.312c0.841,0.208 1.668,0.51 2.48,0.907l-2.211,5.215c-0.529,-0.378 -1.1,-0.657 -1.714,-0.836c-0.614,-0.18 -1.299,-0.269 -2.055,-0.269c-2.041,-0 -3.505,0.817 -4.393,2.451c-0.888,1.634 -1.332,4.379 -1.332,8.233l-0,11.79l-6.15,0l-0,-26.924l6.15,-0l-0,4.336Z" style="fill:#dedede;fill-rule:nonzero;"/><path d="M556.317,30.894c-0,-2.495 -0.803,-4.606 -2.409,-6.335c-1.606,-1.729 -3.571,-2.593 -5.895,-2.593c-2.305,-0 -4.266,0.864 -5.881,2.593c-1.616,1.729 -2.423,3.84 -2.423,6.335c-0,2.494 0.807,4.605 2.423,6.334c1.615,1.729 3.576,2.593 5.881,2.593c2.305,0 4.265,-0.864 5.881,-2.593c1.615,-1.729 2.423,-3.84 2.423,-6.334Zm-23.098,-0.057c-0,-1.965 0.373,-3.822 1.119,-5.569c0.746,-1.748 1.819,-3.302 3.217,-4.662c1.379,-1.342 2.966,-2.372 4.761,-3.09c1.795,-0.718 3.675,-1.077 5.64,-1.077c2.022,0 3.925,0.359 5.711,1.077c1.785,0.718 3.387,1.776 4.804,3.175c1.417,1.379 2.494,2.938 3.231,4.676c0.737,1.738 1.105,3.562 1.105,5.47c0,1.984 -0.364,3.845 -1.091,5.583c-0.727,1.738 -1.79,3.278 -3.188,4.62c-1.474,1.417 -3.109,2.489 -4.904,3.217c-1.795,0.727 -3.684,1.091 -5.668,1.091c-1.946,-0 -3.817,-0.364 -5.612,-1.091c-1.794,-0.728 -3.391,-1.781 -4.789,-3.16c-1.417,-1.399 -2.494,-2.967 -3.231,-4.705c-0.737,-1.738 -1.105,-3.59 -1.105,-5.555Z" style="fill:#dedede;fill-rule:nonzero;"/></g></g></svg>