<?xml version="1.0" encoding="UTF-8" standalone="no"?><!DOCTYPE svg PUBLIC "-//W3C//DTD SVG 1.1//EN" "http://www.w3.org/Graphics/SVG/1.1/DTD/svg11.dtd"><svg width="100%" height="100%" viewBox="0 0 423 113" version="1.1" xmlns="http://www.w3.org/2000/svg" xmlns:xlink="http://www.w3.org/1999/xlink" xml:space="preserve" xmlns:serif="http://www.serif.com/" style="fill-rule:evenodd;clip-rule:evenodd;stroke-linejoin:round;stroke-miterlimit:2;"><g><g><path d="M205.383,47.678l-10.489,-0l-0,-5.946c-1.87,2.643 -4.053,4.608 -6.55,5.897c-2.498,1.289 -5.358,1.934 -8.58,1.934c-6.478,0 -11.577,-2.216 -15.299,-6.647c-3.723,-4.431 -5.584,-10.497 -5.584,-18.199c0,-7.315 1.902,-13.221 5.704,-17.716c3.803,-4.495 8.766,-6.743 14.889,-6.743c3.738,-0 6.936,0.781 9.595,2.344c2.658,1.563 4.6,3.811 5.825,6.743l-0,-7.492l10.489,-0l-0,45.825Zm-10.199,-23.058c-0,-4.737 -1.104,-8.427 -3.312,-11.069c-2.207,-2.643 -5.293,-3.964 -9.256,-3.964c-3.964,0 -7.082,1.362 -9.354,4.085c-2.272,2.723 -3.408,6.501 -3.408,11.335c0,4.866 1.096,8.62 3.287,11.263c2.192,2.642 5.285,3.964 9.281,3.964c3.771,-0 6.84,-1.434 9.209,-4.302c2.368,-2.869 3.553,-6.639 3.553,-11.312Z" style="fill:#dedede;fill-rule:nonzero;"/><path d="M219.885,47.678l-0,-45.825l9.861,-0l-0,7.492c2.094,-3.158 4.559,-5.462 7.395,-6.912c2.836,-1.45 6.284,-2.175 10.345,-2.175c3.416,-0 6.324,0.54 8.725,1.619c2.401,1.08 4.278,2.683 5.631,4.81c0.806,1.257 1.386,2.723 1.74,4.399c0.355,1.675 0.532,4.608 0.532,8.797l0,27.795l-10.586,-0l0,-23.541c0,-6.026 -0.733,-10.03 -2.199,-12.012c-1.467,-1.982 -4.069,-2.973 -7.807,-2.973c-2.449,0 -4.632,0.451 -6.55,1.354c-1.917,0.902 -3.424,2.175 -4.52,3.818c-0.773,1.096 -1.313,2.506 -1.619,4.23c-0.306,1.724 -0.459,4.471 -0.459,8.242l-0,20.882l-10.489,-0Z" style="fill:#dedede;fill-rule:nonzero;"/></g><g><path d="M16.253,94.206l11.563,0l-4.251,-9.466c-0.246,-0.604 -0.501,-1.299 -0.765,-2.083c-0.265,-0.784 -0.529,-1.658 -0.794,-2.621c-0.227,0.906 -0.468,1.752 -0.723,2.536c-0.255,0.784 -0.515,1.507 -0.779,2.168l-4.251,9.466Zm18.648,16.297l-4.704,-10.685l-16.438,-0l-4.818,10.685l-7.086,-0l20.094,-43.136l20.066,43.136l-7.114,-0Z" style="fill:#dedede;fill-rule:nonzero;"/><path d="M45.416,110.503l0,-26.868l5.782,-0l-0,4.393c1.228,-1.852 2.673,-3.203 4.336,-4.053c1.663,-0.85 3.684,-1.275 6.065,-1.275c2.003,-0 3.708,0.316 5.116,0.949c1.407,0.633 2.508,1.573 3.302,2.82c0.472,0.737 0.812,1.597 1.02,2.579c0.208,0.983 0.312,2.702 0.312,5.158l-0,16.297l-6.207,-0l-0,-13.803c-0,-3.533 -0.43,-5.881 -1.29,-7.043c-0.859,-1.162 -2.385,-1.743 -4.577,-1.743c-1.436,0 -2.716,0.265 -3.84,0.794c-1.124,0.529 -2.008,1.275 -2.65,2.239c-0.454,0.642 -0.77,1.469 -0.949,2.48c-0.18,1.011 -0.27,2.621 -0.27,4.832l0,12.244l-6.15,-0Z" style="fill:#dedede;fill-rule:nonzero;"/><path d="M98.84,96.984c0,-2.778 -0.647,-4.941 -1.941,-6.49c-1.295,-1.55 -3.104,-2.324 -5.428,-2.324c-2.324,-0 -4.152,0.798 -5.484,2.394c-1.332,1.597 -1.998,3.812 -1.998,6.647c0,2.853 0.642,5.054 1.927,6.603c1.285,1.549 3.099,2.324 5.442,2.324c2.229,0 4.034,-0.836 5.413,-2.508c1.379,-1.672 2.069,-3.888 2.069,-6.646Zm-0.17,-30.411l6.15,0l0,43.93l-6.15,-0l-0,-3.486c-1.096,1.549 -2.376,2.702 -3.84,3.457c-1.465,0.756 -3.142,1.134 -5.031,1.134c-3.798,0 -6.788,-1.299 -8.97,-3.897c-2.182,-2.598 -3.274,-6.155 -3.274,-10.671c0,-4.289 1.115,-7.751 3.345,-10.387c2.229,-2.636 5.139,-3.953 8.729,-3.953c2.192,-0 4.067,0.458 5.626,1.374c1.559,0.917 2.697,2.234 3.415,3.954l-0,-21.455Z" style="fill:#dedede;fill-rule:nonzero;"/><path d="M119.473,87.914c0.661,-1.776 1.535,-3.089 2.621,-3.939c1.087,-0.85 2.433,-1.275 4.039,-1.275c0.869,-0 1.724,0.104 2.565,0.311c0.841,0.208 1.667,0.511 2.48,0.907l-2.211,5.215c-0.529,-0.378 -1.1,-0.656 -1.715,-0.836c-0.614,-0.179 -1.299,-0.269 -2.054,-0.269c-2.041,-0 -3.505,0.817 -4.393,2.451c-0.888,1.635 -1.332,4.379 -1.332,8.234l-0,11.79l-6.15,-0l-0,-26.925l6.15,0l-0,4.336Z" style="fill:#dedede;fill-rule:nonzero;"/><path d="M160.568,97.976l-21.483,-0c0.151,2.513 0.898,4.473 2.239,5.881c1.342,1.407 3.127,2.111 5.357,2.111c1.984,0 3.637,-0.416 4.959,-1.247c1.323,-0.831 2.476,-2.173 3.458,-4.024l5.187,2.89c-1.512,2.702 -3.383,4.715 -5.612,6.037c-2.23,1.323 -4.846,1.984 -7.851,1.984c-4.308,0 -7.737,-1.313 -10.288,-3.939c-2.55,-2.627 -3.826,-6.132 -3.826,-10.515c0,-4.214 1.318,-7.676 3.954,-10.387c2.636,-2.712 6.022,-4.067 10.16,-4.067c4.327,-0 7.7,1.237 10.118,3.712c2.419,2.476 3.628,5.943 3.628,10.402l-0,1.162Zm-6.377,-4.138c-0.246,-1.927 -0.982,-3.396 -2.211,-4.407c-1.228,-1.011 -2.909,-1.517 -5.044,-1.517c-2.022,0 -3.647,0.492 -4.875,1.474c-1.228,0.983 -2.088,2.466 -2.579,4.45l14.709,-0Zm-11.365,-14.284l5.385,-7.709l6.377,-0l-8.276,7.709l-3.486,-0Z" style="fill:#dedede;fill-rule:nonzero;"/><path d="M163.884,105.628l5.101,-2.778c0.378,1.342 1.077,2.362 2.098,3.061c1.02,0.699 2.333,1.049 3.939,1.049c1.379,0 2.461,-0.316 3.245,-0.949c0.784,-0.633 1.176,-1.498 1.176,-2.594c0,-1.455 -1.398,-2.702 -4.194,-3.741c-0.945,-0.34 -1.672,-0.623 -2.182,-0.85c-2.872,-1.19 -4.88,-2.4 -6.023,-3.628c-1.143,-1.228 -1.715,-2.721 -1.715,-4.478c0,-2.399 0.94,-4.345 2.82,-5.838c1.88,-1.493 4.37,-2.239 7.468,-2.239c2.079,-0 3.86,0.383 5.343,1.148c1.483,0.765 2.565,1.856 3.245,3.273l-4.365,3.004c-0.321,-0.85 -0.883,-1.525 -1.686,-2.026c-0.803,-0.501 -1.734,-0.751 -2.792,-0.751c-1.171,-0 -2.111,0.279 -2.82,0.836c-0.708,0.557 -1.063,1.299 -1.063,2.225c0,1.398 1.588,2.673 4.762,3.826c1.001,0.359 1.776,0.652 2.324,0.879c2.475,0.982 4.246,2.092 5.314,3.33c1.067,1.237 1.601,2.782 1.601,4.634c0,2.683 -0.973,4.785 -2.919,6.306c-1.946,1.521 -4.629,2.281 -8.049,2.281c-2.626,0 -4.809,-0.491 -6.547,-1.474c-1.738,-0.982 -3.099,-2.484 -4.081,-4.506Z" style="fill:#dedede;fill-rule:nonzero;"/><path d="M209.712,110.503l0,-43.136l26.358,25.366c0.718,0.718 1.445,1.483 2.182,2.295c0.737,0.813 1.512,1.729 2.324,2.749l0,-28.766l6.235,-0l0,43.107l-26.896,-25.819c-0.718,-0.699 -1.412,-1.436 -2.083,-2.211c-0.671,-0.774 -1.308,-1.587 -1.913,-2.437l0,28.852l-6.207,-0Z" style="fill:#dedede;fill-rule:nonzero;"/><path d="M281.105,110.503l-6.15,-0l-0,-3.486c-1.096,1.549 -2.376,2.702 -3.841,3.457c-1.464,0.756 -3.141,1.134 -5.03,1.134c-3.798,0 -6.788,-1.299 -8.97,-3.897c-2.183,-2.598 -3.274,-6.155 -3.274,-10.671c0,-4.289 1.115,-7.751 3.344,-10.387c2.23,-2.636 5.14,-3.953 8.73,-3.953c2.191,-0 4.067,0.458 5.625,1.374c1.559,0.917 2.698,2.234 3.416,3.954l-0,-4.393l6.15,-0l-0,26.868Zm-5.98,-13.519c-0,-2.778 -0.647,-4.941 -1.942,-6.49c-1.294,-1.55 -3.103,-2.324 -5.427,-2.324c-2.324,-0 -4.152,0.798 -5.484,2.394c-1.332,1.597 -1.998,3.812 -1.998,6.647c-0,2.853 0.642,5.054 1.927,6.603c1.285,1.549 3.099,2.324 5.441,2.324c2.211,0 4.011,-0.841 5.4,-2.522c1.388,-1.682 2.083,-3.893 2.083,-6.632Z" style="fill:#dedede;fill-rule:nonzero;"/><path d="M299.045,112.118l-14.086,-28.483l6.717,-0l5.867,13.519c0.189,0.415 0.415,1.039 0.68,1.87c0.265,0.832 0.539,1.824 0.822,2.976c0.189,-0.812 0.411,-1.62 0.666,-2.423c0.255,-0.803 0.562,-1.611 0.921,-2.423l5.838,-13.519l6.689,-0l-14.114,28.483Z" style="fill:#dedede;fill-rule:nonzero;"/><path d="M342.294,110.503l-6.15,-0l0,-3.486c-1.096,1.549 -2.376,2.702 -3.84,3.457c-1.465,0.756 -3.141,1.134 -5.031,1.134c-3.798,0 -6.788,-1.299 -8.97,-3.897c-2.182,-2.598 -3.273,-6.155 -3.273,-10.671c-0,-4.289 1.114,-7.751 3.344,-10.387c2.229,-2.636 5.139,-3.953 8.729,-3.953c2.192,-0 4.067,0.458 5.626,1.374c1.559,0.917 2.697,2.234 3.415,3.954l0,-4.393l6.15,-0l0,26.868Zm-5.98,-13.519c0,-2.778 -0.647,-4.941 -1.941,-6.49c-1.295,-1.55 -3.104,-2.324 -5.428,-2.324c-2.324,-0 -4.152,0.798 -5.484,2.394c-1.332,1.597 -1.998,3.812 -1.998,6.647c0,2.853 0.643,5.054 1.927,6.603c1.285,1.549 3.099,2.324 5.442,2.324c2.211,0 4.01,-0.841 5.399,-2.522c1.389,-1.682 2.083,-3.893 2.083,-6.632Z" style="fill:#dedede;fill-rule:nonzero;"/><path d="M356.947,87.914c0.661,-1.776 1.535,-3.089 2.621,-3.939c1.087,-0.85 2.433,-1.275 4.039,-1.275c0.869,-0 1.724,0.104 2.565,0.311c0.841,0.208 1.667,0.511 2.48,0.907l-2.211,5.215c-0.529,-0.378 -1.1,-0.656 -1.714,-0.836c-0.615,-0.179 -1.299,-0.269 -2.055,-0.269c-2.041,-0 -3.505,0.817 -4.393,2.451c-0.888,1.635 -1.332,4.379 -1.332,8.234l-0,11.79l-6.15,-0l-0,-26.925l6.15,0l-0,4.336Z" style="fill:#dedede;fill-rule:nonzero;"/><path d="M378.316,87.914c0.662,-1.776 1.535,-3.089 2.622,-3.939c1.086,-0.85 2.433,-1.275 4.039,-1.275c0.869,-0 1.724,0.104 2.565,0.311c0.84,0.208 1.667,0.511 2.479,0.907l-2.21,5.215c-0.529,-0.378 -1.101,-0.656 -1.715,-0.836c-0.614,-0.179 -1.299,-0.269 -2.055,-0.269c-2.04,-0 -3.505,0.817 -4.393,2.451c-0.888,1.635 -1.332,4.379 -1.332,8.234l0,11.79l-6.15,-0l0,-26.925l6.15,0l0,4.336Z" style="fill:#dedede;fill-rule:nonzero;"/><path d="M414.65,97.154c0,-2.494 -0.803,-4.606 -2.409,-6.335c-1.606,-1.728 -3.571,-2.593 -5.895,-2.593c-2.305,0 -4.265,0.865 -5.881,2.593c-1.615,1.729 -2.423,3.841 -2.423,6.335c0,2.494 0.808,4.605 2.423,6.334c1.616,1.729 3.576,2.593 5.881,2.593c2.305,0 4.266,-0.864 5.881,-2.593c1.615,-1.729 2.423,-3.84 2.423,-6.334Zm-23.098,-0.057c-0,-1.965 0.373,-3.821 1.119,-5.569c0.747,-1.748 1.819,-3.302 3.217,-4.662c1.379,-1.342 2.967,-2.371 4.761,-3.089c1.795,-0.718 3.675,-1.077 5.64,-1.077c2.022,-0 3.926,0.359 5.711,1.077c1.786,0.718 3.387,1.776 4.804,3.174c1.417,1.379 2.494,2.938 3.231,4.676c0.737,1.738 1.105,3.562 1.105,5.47c0,1.984 -0.363,3.845 -1.091,5.583c-0.727,1.739 -1.79,3.279 -3.188,4.62c-1.474,1.417 -3.108,2.489 -4.903,3.217c-1.795,0.727 -3.685,1.091 -5.669,1.091c-1.946,0 -3.816,-0.364 -5.611,-1.091c-1.795,-0.728 -3.392,-1.781 -4.79,-3.16c-1.417,-1.398 -2.494,-2.967 -3.231,-4.705c-0.737,-1.738 -1.105,-3.59 -1.105,-5.555Z" style="fill:#dedede;fill-rule:nonzero;"/></g></g></svg>